HIERARCHY
ROOT Hips
{
  OFFSET 5.80788e-005 67.184 3.4734
  CHANNELS 6 Xposition Yposition Zposition Zrotation Xrotation Yrotation
  JOINT Chest
  {
    OFFSET 0 8.7983 -4.7612
    CHANNELS 3 Zrotation Xrotation Yrotation
    JOINT Chest2
    {
      OFFSET 0 8.0291 0.4195
      CHANNELS 3 Zrotation Xrotation Yrotation
      JOINT Chest3
      {
        OFFSET 0 9.9351 -2.2114
        CHANNELS 3 Zrotation Xrotation Yrotation
        JOINT Neck
        {
          OFFSET 0 22.3885 -0.4656
          CHANNELS 3 Zrotation Xrotation Yrotation
          JOINT Head
          {
            OFFSET -0.0001 12.643 3.4389
            CHANNELS 3 Zrotation Xrotation Yrotation
            End Site
            {
              OFFSET 0.0001 17.6655 0.5274
            }
          }
        }
        JOINT LeftCollar
        {
          OFFSET 2.2603 21.606 7.4023
          CHANNELS 3 Zrotation Xrotation Yrotation
          JOINT LeftShoulder
          {
            OFFSET 13.5163 -1.1332 -5.0146
            CHANNELS 3 Zrotation Xrotation Yrotation
            JOINT LeftElbow
            {
              OFFSET -0.0995 -28.05 -0.2431
              CHANNELS 3 Zrotation Xrotation Yrotation
              JOINT LeftWrist
              {
                OFFSET 0.0679 -23.3996 -0.1402
                CHANNELS 3 Zrotation Xrotation Yrotation
                JOINT LeftFinger1
                {
                  OFFSET 0.7932 -9.069 2.5189
                  CHANNELS 3 Zrotation Xrotation Yrotation
                  JOINT LeftFinger11
                  {
                    OFFSET -0.8272 -3.3923 0.5977
                    CHANNELS 3 Zrotation Xrotation Yrotation
                    JOINT LeftFinger12
                    {
                      OFFSET -0.5649 -2.3158 0.4082
                      CHANNELS 3 Zrotation Xrotation Yrotation
                      End Site
                      {
                        OFFSET -0.4919 -1.6479 0.2673
                      }
                    }
                  }
                }
                JOINT LeftFinger2
                {
                  OFFSET 0.9159 -9.2044 0.2193
                  CHANNELS 3 Zrotation Xrotation Yrotation
                  JOINT LeftFinger21
                  {
                    OFFSET 0.0117 -4.1944 -0.0248
                    CHANNELS 3 Zrotation Xrotation Yrotation
                    JOINT LeftFinger22
                    {
                      OFFSET 0.0071 -2.3249 -0.0142
                      CHANNELS 3 Zrotation Xrotation Yrotation
                      End Site
                      {
                        OFFSET -0.1475 -2.0882 0.0028
                      }
                    }
                  }
                }
                JOINT LeftFinger3
                {
                  OFFSET 0.6113 -8.7231 -2.0637
                  CHANNELS 3 Zrotation Xrotation Yrotation
                  JOINT LeftFinger31
                  {
                    OFFSET -0.1927 -3.8059 -0.2383
                    CHANNELS 3 Zrotation Xrotation Yrotation
                    JOINT LeftFinger32
                    {
                      OFFSET -0.1091 -2.1688 -0.1362
                      CHANNELS 3 Zrotation Xrotation Yrotation
                      End Site
                      {
                        OFFSET -0.2358 -1.9176 -0.0906
                      }
                    }
                  }
                }
                JOINT LeftFinger4
                {
                  OFFSET -0.6151 -8.0947 -3.5641
                  CHANNELS 3 Zrotation Xrotation Yrotation
                  JOINT LeftFinger41
                  {
                    OFFSET -0.4882 -2.341 -0.6462
                    CHANNELS 3 Zrotation Xrotation Yrotation
                    JOINT LeftFinger42
                    {
                      OFFSET -0.3575 -1.7167 -0.4742
                      CHANNELS 3 Zrotation Xrotation Yrotation
                      End Site
                      {
                        OFFSET -0.4187 -1.5237 -0.3496
                      }
                    }
                  }
                }
                JOINT LeftFinger0
                {
                  OFFSET -1.42 -1.8761 1.4223
                  CHANNELS 3 Zrotation Xrotation Yrotation
                  JOINT LeftFinger01
                  {
                    OFFSET -1.1471 -3.4929 2.6334
                    CHANNELS 3 Zrotation Xrotation Yrotation
                    JOINT LeftFinger02
                    {
                      OFFSET -0.823 -2.3 1.6571
                      CHANNELS 3 Zrotation Xrotation Yrotation
                      End Site
                      {
                        OFFSET -0.5822 -1.6914 1.1582
                      }
                    }
                  }
                }
              }
            }
          }
        }
        JOINT RightCollar
        {
          OFFSET -2.2603 21.606 7.4023
          CHANNELS 3 Zrotation Xrotation Yrotation
          JOINT RightShoulder
          {
            OFFSET -13.5187 -1.1334 -5.0155
            CHANNELS 3 Zrotation Xrotation Yrotation
            JOINT RightElbow
            {
              OFFSET 0.0994 -28.0499 -0.2431
              CHANNELS 3 Zrotation Xrotation Yrotation
              JOINT RightWrist
              {
                OFFSET -0.0679 -23.3996 -0.1402
                CHANNELS 3 Zrotation Xrotation Yrotation
                JOINT RightFinger1
                {
                  OFFSET -0.7932 -9.0691 2.5189
                  CHANNELS 3 Zrotation Xrotation Yrotation
                  JOINT RightFinger11
                  {
                    OFFSET 0.8272 -3.3923 0.5977
                    CHANNELS 3 Zrotation Xrotation Yrotation
                    JOINT RightFinger12
                    {
                      OFFSET 0.565 -2.3158 0.4082
                      CHANNELS 3 Zrotation Xrotation Yrotation
                      End Site
                      {
                        OFFSET 0.4919 -1.6479 0.2673
                      }
                    }
                  }
                }
                JOINT RightFinger2
                {
                  OFFSET -0.916 -9.2044 0.2193
                  CHANNELS 3 Zrotation Xrotation Yrotation
                  JOINT RightFinger21
                  {
                    OFFSET -0.0117 -4.1944 -0.0248
                    CHANNELS 3 Zrotation Xrotation Yrotation
                    JOINT RightFinger22
                    {
                      OFFSET -0.0071 -2.3249 -0.0142
                      CHANNELS 3 Zrotation Xrotation Yrotation
                      End Site
                      {
                        OFFSET 0.1475 -2.0882 0.0028
                      }
                    }
                  }
                }
                JOINT RightFinger3
                {
                  OFFSET -0.6113 -8.7231 -2.0637
                  CHANNELS 3 Zrotation Xrotation Yrotation
                  JOINT RightFinger31
                  {
                    OFFSET 0.1927 -3.8059 -0.2383
                    CHANNELS 3 Zrotation Xrotation Yrotation
                    JOINT RightFinger32
                    {
                      OFFSET 0.1091 -2.1688 -0.1362
                      CHANNELS 3 Zrotation Xrotation Yrotation
                      End Site
                      {
                        OFFSET 0.2358 -1.9176 -0.0906
                      }
                    }
                  }
                }
                JOINT RightFinger4
                {
                  OFFSET 0.6151 -8.0947 -3.564
                  CHANNELS 3 Zrotation Xrotation Yrotation
                  JOINT RightFinger41
                  {
                    OFFSET 0.4882 -2.341 -0.6462
                    CHANNELS 3 Zrotation Xrotation Yrotation
                    JOINT RightFinger42
                    {
                      OFFSET 0.3574 -1.7166 -0.4742
                      CHANNELS 3 Zrotation Xrotation Yrotation
                      End Site
                      {
                        OFFSET 0.4187 -1.5237 -0.3496
                      }
                    }
                  }
                }
                JOINT RightFinger0
                {
                  OFFSET 1.4199 -1.8761 1.4221
                  CHANNELS 3 Zrotation Xrotation Yrotation
                  JOINT RightFinger01
                  {
                    OFFSET 1.1472 -3.4929 2.6336
                    CHANNELS 3 Zrotation Xrotation Yrotation
                    JOINT RightFinger02
                    {
                      OFFSET 0.8229 -2.3 1.6571
                      CHANNELS 3 Zrotation Xrotation Yrotation
                      End Site
                      {
                        OFFSET 0.5822 -1.6914 1.1582
                      }
                    }
                  }
                }
              }
            }
          }
        }
      }
    }
  }
  JOINT RightHip
  {
    OFFSET -9.412 3.9771 -0.7758
    CHANNELS 3 Zrotation Xrotation Yrotation
    JOINT RightKnee
    {
      OFFSET -0.7531 -40.938 0
      CHANNELS 3 Zrotation Xrotation Yrotation
      JOINT RightAnkle
      {
        OFFSET 0 -40.1986 0
        CHANNELS 3 Zrotation Xrotation Yrotation
        JOINT RightToe
        {
          OFFSET 0 -4.4182 9.239
          CHANNELS 3 Zrotation Xrotation Yrotation
          End Site
          {
            OFFSET 0 0 6.1981
          }
        }
      }
    }
  }
  JOINT LeftHip
  {
    OFFSET 9.4119 3.9773 -0.7758
    CHANNELS 3 Zrotation Xrotation Yrotation
    JOINT LeftKnee
    {
      OFFSET 0.7532 -40.9383 0
      CHANNELS 3 Zrotation Xrotation Yrotation
      JOINT LeftAnkle
      {
        OFFSET 0 -40.1986 0
        CHANNELS 3 Zrotation Xrotation Yrotation
        JOINT LeftToe
        {
          OFFSET 0 -4.4182 9.239
          CHANNELS 3 Zrotation Xrotation Yrotation
          End Site
          {
            OFFSET 0 0 6.1981
          }
        }
      }
    }
  }
}
MOTION
Frames:	6
Frame Time:	0.0333333
-0.764849 77.2208 -6.59575 -154.458 73.5856 -27.1847 -0.41202 13.8649 -0.599273 -0.701668 27.7334 -1.14503 -0.701669 27.7333 -1.14503 5.19512e-005 -29.5296 4.6119e-005 0.32007 -0.568274 0.00857262 -28.3495 -19.7808 -3.19299 37.6094 -10.6066 -3.80741 -85.0546 -49.5241 -65.3515 21.9608 -7.3233 1.21784 3.97569e-015 -9.54166e-015 -3.18055e-015 7.15625e-015 -3.18055e-015 -0 -7.95139e-016 0 -1.59028e-015 3.97569e-015 -9.54166e-015 -3.18055e-015 -0.0128631 0.00232597 8.45965e-005 2.38542e-015 0 -3.18055e-015 3.97569e-015 -9.54166e-015 -3.18055e-015 -0.0160327 0.00299634 0.000854145 -7.95139e-016 9.54166e-015 1.59028e-015 3.97569e-015 -9.54166e-015 -3.18055e-015 -0.0125642 0.00310811 0.00282456 4.77083e-015 1.27222e-014 -0 3.97569e-015 -9.54166e-015 -3.18055e-015 7.15625e-015 -3.18055e-015 -0 -7.95139e-016 0 -1.59028e-015 0.319216 -12.5838 15.8251 -74.5823 -53.2739 -39.8353 8.40091 -4.87215 -13.4578 41.0772 -2.95695 9.886 -6.36111e-015 0 4.77083e-015 -3.18055e-015 -1.27222e-014 4.77083e-015 7.95139e-015 -3.18055e-015 4.77083e-015 -6.36111e-015 0 4.77083e-015 0.0129787 0.0023263 -9.03981e-005 3.18055e-015 6.36111e-015 -1.59028e-015 -6.36111e-015 0 4.77083e-015 0.0162967 0.00302758 -0.000882439 -1.59028e-015 0 -3.18055e-015 -6.36111e-015 0 4.77083e-015 0.0146227 0.00369625 -0.00328286 -6.36111e-015 0 1.59028e-015 -6.36111e-015 0 4.77083e-015 -3.18055e-015 -1.27222e-014 4.77083e-015 7.95139e-015 -3.18055e-015 4.77083e-015 -97.9407 -49.3792 -109.798 -168.244 65.7251 167.681 0.384545 -18.2518 -2.67054 -1.54962e-006 4.75256e-006 -7.25333e-006 99.0445 -53.7102 113.338 167.816 69.7071 -167.452 2.64975 -14.7451 7.93108 6.84242e-007 -1.70319e-005 9.74168e-006 
-0.616243 72.0969 -8.88895 -11.5927 66.2276 -169.444 -0.413664 14.0645 -0.596515 -0.704286 28.1326 -1.13865 -0.704285 28.1325 -1.13865 5.6162e-005 -29.2544 4.88654e-005 0.320073 -0.568277 0.00857351 -28.3024 -20.0209 -3.30483 37.6094 -10.6066 -3.80736 -86.086 -49.652 -66.1122 21.7292 -7.46935 0.700925 -4.41391e-032 -3.18055e-015 -7.95139e-016 -8.82781e-032 -6.36111e-015 -7.95139e-016 3.18055e-015 -6.36111e-015 -7.95139e-016 -4.41391e-032 -3.18055e-015 -7.95139e-016 -0.0128164 0.00232605 8.4837e-005 -3.18055e-015 3.18055e-015 1.59028e-015 -4.41391e-032 -3.18055e-015 -7.95139e-016 -0.0160348 0.00300074 0.000862571 9.54166e-015 3.18055e-015 1.59028e-015 -4.41391e-032 -3.18055e-015 -7.95139e-016 -0.0125653 0.00312512 0.00282529 -3.18055e-015 3.18055e-015 -7.95139e-016 -4.41391e-032 -3.18055e-015 -7.95139e-016 -8.82781e-032 -6.36111e-015 -7.95139e-016 3.18055e-015 -6.36111e-015 -7.95139e-016 0.191917 -12.9453 15.9655 -74.6699 -53.1711 -39.914 8.40032 -4.86996 -13.4581 41.023 -3.26097 9.87584 1.59028e-014 1.19271e-015 2.78299e-015 1.37935e-032 3.97569e-016 -1.98785e-015 6.36111e-015 1.19271e-015 2.38542e-015 1.59028e-014 1.19271e-015 2.78299e-015 0.0129716 0.00232563 -8.764e-005 -3.18055e-015 7.95139e-016 8.74653e-015 1.59028e-014 1.19271e-015 2.78299e-015 0.0163619 0.00304835 -0.000871599 1.42768e-006 -2.18436e-006 2.98723e-006 1.59028e-014 1.19271e-015 2.78299e-015 0.0146542 0.00370388 -0.00327264 2.03544e-006 7.8742e-006 -1.00338e-007 1.59028e-014 1.19271e-015 2.78299e-015 1.37935e-032 3.97569e-016 -1.98785e-015 6.36111e-015 1.19271e-015 2.38542e-015 -95.707 -49.4126 -107.742 -167.762 66.6522 167.323 0.448148 -18.4531 -2.42271 7.6485e-007 -1.09793e-005 -1.53358e-005 96.6842 -53.8892 111.099 167.266 70.5737 -166.997 2.57263 -14.9638 7.75026 -9.18285e-007 -5.57851e-006 1.01178e-005 
-0.441189 69.592 -8.65791 -4.74082 48.8463 -175.993 -0.415322 14.2641 -0.59372 -0.706949 28.5317 -1.13219 -0.706947 28.5316 -1.13218 5.5891e-005 -28.9792 4.89331e-005 0.320072 -0.568274 0.00857683 -28.2556 -20.2611 -3.41661 37.6094 -10.6066 -3.80732 -87.1223 -49.771 -66.8782 21.4962 -7.61334 0.183285 1.41085e-005 -9.03778e-007 2.8204e-006 7.62023e-006 1.8256e-006 5.71404e-006 5.87284e-006 6.0097e-007 -1.53145e-006 1.41085e-005 -9.03778e-007 2.8204e-006 -0.0128334 0.00232354 8.32579e-005 4.22627e-006 7.86717e-006 -2.40165e-006 1.41085e-005 -9.03778e-007 2.8204e-006 -0.0160803 0.00300525 0.000858892 4.26646e-006 -7.31993e-006 1.4842e-007 1.41085e-005 -9.03778e-007 2.8204e-006 -0.0125968 0.00312182 0.00281258 1.68034e-006 -9.19703e-007 2.99551e-006 1.41085e-005 -9.03778e-007 2.8204e-006 7.62023e-006 1.8256e-006 5.71404e-006 5.87284e-006 6.0097e-007 -1.53145e-006 0.0653484 -13.307 16.1052 -74.754 -53.0644 -39.9899 8.40085 -4.87194 -13.4578 40.9688 -3.56494 9.86539 3.77625e-007 -4.15395e-007 -7.41729e-007 -7.18518e-006 3.01153e-006 -2.30246e-006 3.70577e-006 -1.33711e-006 -1.45626e-006 3.77625e-007 -4.15395e-007 -7.41729e-007 0.0128997 0.00230994 -9.16517e-005 8.16637e-006 5.11444e-006 -4.39564e-006 3.77625e-007 -4.15395e-007 -7.41729e-007 0.0163163 0.00303971 -0.000873699 1.06138e-006 -8.0567e-006 3.73595e-006 3.77625e-007 -4.15395e-007 -7.41729e-007 0.0146134 0.0036923 -0.00326993 -8.09465e-006 5.01529e-007 -1.56594e-006 3.77625e-007 -4.15395e-007 -7.41729e-007 -7.18518e-006 3.01153e-006 -2.30246e-006 3.70577e-006 -1.33711e-006 -1.45626e-006 -94.4027 -49.4871 -106.624 -167.394 67.3435 166.918 0.337521 -18.3193 -2.31648 5.30453e-006 -5.63771e-006 -2.2283e-006 95.2441 -54.023 109.752 166.818 71.2451 -166.537 2.60623 -14.8465 7.65126 -6.87293e-006 -3.85737e-007 -4.0575e-006 
-0.323348 68.387 -8.16884 -2.87471 39.1454 -177.678 -0.416997 14.4637 -0.590905 -0.709692 28.9309 -1.12565 -0.70969 28.9307 -1.12565 5.88759e-005 -28.704 5.10114e-005 0.320072 -0.568275 0.00858221 -28.2093 -20.5013 -3.52837 37.6094 -10.6066 -3.80728 -88.1633 -49.881 -67.649 21.2619 -7.75521 -0.335065 3.18055e-015 1.59028e-015 1.59028e-015 -5.51738e-032 1.59028e-015 1.98785e-015 3.18055e-015 0 -7.95139e-016 3.18055e-015 1.59028e-015 1.59028e-015 -0.0128079 0.00232255 8.71456e-005 -6.36111e-015 0 -2.38542e-015 3.18055e-015 1.59028e-015 1.59028e-015 -0.0160394 0.00299154 0.000843249 0 0 -1.19271e-015 3.18055e-015 1.59028e-015 1.59028e-015 -0.0126081 0.00311699 0.00282005 -3.18055e-015 -4.77083e-015 -3.97569e-016 3.18055e-015 1.59028e-015 1.59028e-015 -5.51738e-032 1.59028e-015 1.98785e-015 3.18055e-015 0 -7.95139e-016 -0.0604947 -13.6691 16.2443 -74.8409 -52.9618 -40.068 8.40017 -4.86948 -13.4581 40.9146 -3.86891 9.85461 -1.46957e-006 1.0939e-006 2.07503e-006 -3.90019e-006 -3.06091e-006 -2.82094e-006 1.90833e-014 0 3.18055e-015 -1.46957e-006 1.0939e-006 2.07503e-006 0.0129705 0.00231668 -8.42695e-005 -1.46972e-006 -4.28319e-006 2.07497e-006 -1.46957e-006 1.0939e-006 2.07503e-006 0.0163172 0.00302985 -0.000875096 -3.74916e-006 1.44178e-006 7.85479e-007 -1.46957e-006 1.0939e-006 2.07503e-006 0.0145941 0.00366936 -0.00325929 4.89926e-007 5.99511e-007 -6.91651e-007 -1.46957e-006 1.0939e-006 2.07503e-006 -3.90019e-006 -3.06091e-006 -2.82094e-006 1.90833e-014 0 3.18055e-015 -93.3703 -49.503 -105.691 -167.159 67.8004 166.652 0.242322 -18.2431 -2.20975 1.76926e-006 4.38197e-007 4.34494e-006 94.0751 -54.0926 108.613 166.52 71.6957 -166.225 2.63244 -14.7859 7.55791 5.87718e-006 4.01574e-006 4.89733e-006 
-0.243935 67.7734 -7.73763 -1.99515 33.0629 -178.437 -0.418711 14.6633 -0.588084 -0.712566 29.3299 -1.11907 -0.712564 29.3298 -1.11907 6.20237e-005 -28.4289 5.36576e-005 0.320072 -0.568272 0.00858768 -28.1635 -20.7417 -3.64008 37.6094 -10.6066 -3.80726 -89.2083 -49.9818 -68.4242 21.0263 -7.89493 -0.854035 3.18055e-015 -1.27222e-014 1.59028e-015 3.18055e-015 -1.59028e-014 7.95139e-016 4.82458e-006 6.48196e-007 -1.84407e-006 3.18055e-015 -1.27222e-014 1.59028e-015 -0.012832 0.00232415 8.39346e-005 -3.18055e-015 3.18055e-015 -7.95139e-016 3.18055e-015 -1.27222e-014 1.59028e-015 -0.0160613 0.00300287 0.000855039 4.62279e-006 4.47772e-007 -1.03035e-006 3.18055e-015 -1.27222e-014 1.59028e-015 -0.012565 0.00311319 0.00281928 7.00058e-006 8.5573e-006 -3.8004e-006 3.18055e-015 -1.27222e-014 1.59028e-015 3.18055e-015 -1.59028e-014 7.95139e-016 4.82458e-006 6.48196e-007 -1.84407e-006 -0.185613 -14.0314 16.3828 -74.9248 -52.8557 -40.1434 8.40049 -4.87064 -13.458 40.8602 -4.17286 9.8436 0 6.36111e-015 -0 4.86746e-007 3.50074e-007 2.83991e-006 -4.86746e-007 -3.50074e-007 -2.83991e-006 0 6.36111e-015 -0 0.0128896 0.002305 -8.08076e-005 -3.53113e-031 3.18055e-015 6.36111e-015 0 6.36111e-015 -0 0.0163401 0.00303867 -0.000859728 -3.09316e-006 -8.28084e-006 -3.79114e-006 0 6.36111e-015 -0 0.014592 0.0036797 -0.00325776 9.54166e-015 0 -0 0 6.36111e-015 -0 4.86746e-007 3.50074e-007 2.83991e-006 -4.86746e-007 -3.50074e-007 -2.83991e-006 -92.3935 -49.479 -104.77 -166.981 68.1615 166.459 0.170117 -18.2248 -2.09063 3.70867e-006 1.73901e-006 -1.40651e-007 92.964 -54.1254 107.501 166.286 72.051 -165.988 2.64503 -14.7832 7.46042 3.03266e-006 1.79579e-006 -3.64413e-006 
-0.187923 67.4604 -7.39054 -1.48064 28.9168 -178.865 -0.420443 14.8627 -0.585237 -0.715521 29.7289 -1.11242 -0.715519 29.7288 -1.11242 6.18405e-005 -28.1537 5.32139e-005 0.320072 -0.568267 0.0085955 -28.118 -20.9821 -3.75176 37.6094 -10.6066 -3.80722 -90.2573 -50.0735 -69.2035 20.7894 -8.03252 -1.37367 1.59028e-015 0 -3.18055e-015 4.77083e-015 0 1.59028e-015 3.18055e-015 0 -0 1.59028e-015 0 -3.18055e-015 -0.0128152 0.00232314 8.93475e-005 -1.59028e-015 -3.18055e-015 3.18055e-015 1.59028e-015 0 -3.18055e-015 -0.0160633 0.00298937 0.000866071 1.59028e-015 -6.36111e-015 -0 1.59028e-015 0 -3.18055e-015 -0.0125854 0.00311717 0.00282916 1.59028e-015 -6.36111e-015 -3.18055e-015 1.59028e-015 0 -3.18055e-015 4.77083e-015 0 1.59028e-015 3.18055e-015 0 -0 -0.310011 -14.3939 16.5207 -75.0084 -52.7498 -40.2186 8.40075 -4.87141 -13.4579 40.8058 -4.47678 9.83229 -9.50841e-006 4.02222e-006 9.80767e-006 1.28261e-006 -5.99367e-006 2.41563e-006 -3.18055e-015 -6.36111e-015 3.18055e-015 -9.50841e-006 4.02222e-006 9.80767e-006 0.0129225 0.00231117 -9.34904e-005 -9.54166e-015 -6.36111e-015 -0 -9.50841e-006 4.02222e-006 9.80767e-006 0.0163689 0.00303165 -0.000879872 -6.36111e-015 6.36111e-015 -3.18055e-015 -9.50841e-006 4.02222e-006 9.80767e-006 0.0145197 0.00366021 -0.00325307 -3.18055e-015 -9.54166e-015 -0 -9.50841e-006 4.02222e-006 9.80767e-006 1.28261e-006 -5.99367e-006 2.41563e-006 -3.18055e-015 -6.36111e-015 3.18055e-015 -91.4227 -49.4286 -103.834 -166.824 68.4822 166.299 0.113217 -18.2428 -1.96233 4.01197e-007 1.87374e-007 2.86902e-006 91.86 -54.1337 106.383 166.08 72.3639 -165.785 2.64819 -14.8169 7.35891 -1.77809e-006 1.50503e-006 2.87422e-006 
